<svg width="597" height="445" viewBox="0 0 597 445" fill="none" xmlns="http://www.w3.org/2000/svg">
<path d="M581.763 322.129C570.314 306.037 552.946 284.412 539.362 279.899C531.863 274.515 520.277 269.615 507.865 264.473L501.54 261.828C501.708 257.704 500.166 254.548 496.745 252.211C475.819 237.958 454.594 217.886 434.203 195.669C434.75 194.54 435.068 193.289 435.068 191.905C435.066 186.71 430.839 182.067 425.638 181.53C424.137 181.376 422.764 181.341 421.283 181.205C415.334 174.344 409.518 167.412 403.836 160.411C404.81 159.038 405.515 157.439 405.515 155.546C405.514 150.342 401.286 145.699 396.096 145.163C395.608 145.113 393.908 144.946 391.312 144.761C384.682 136.287 378.16 127.762 371.746 119.187C372.154 118.184 372.422 117.1 372.422 115.922C372.42 110.719 368.203 106.068 363.012 105.533C362.505 105.481 362.048 105.466 361.56 105.416C355.518 97.1579 349.526 88.8774 343.585 80.575C343.884 79.6754 344.172 78.75 344.171 77.7291C344.17 72.5338 339.933 67.8896 334.752 67.3552L334.096 67.3039C309.864 33.4853 305.457 28.305 298.745 27.6126C294.31 27.1552 290.193 26.9775 286.186 26.9018C284.673 24.4981 283.132 22.1573 281.629 19.7217C276.944 12.1414 266.938 2.62087 245.966 0.457682C214.194 -2.81941 170.603 12.2219 145.02 22.6328C120.764 11.6095 100.138 5.06912 83.8994 3.39416C67.3224 1.68433 59.6068 5.35915 56.3756 7.7346C56.1767 7.85406 55.9381 7.91177 55.7492 8.05695C37.8734 22.3832 26.3754 51.4297 18.9942 80.6127C7.22792 110.414 5.95133 135.533 6.14314 147.195C5.41396 147.825 4.78674 148.534 4.27419 149.307C-2.59436 160.414 -1.18093 206.41 8.48731 217.361C33.2846 245.549 58.6564 264.781 85.5201 285.146C115.905 308.18 147.314 331.994 184.236 372.482C216.045 407.378 282.258 432.329 365.919 440.958C477.374 452.454 596.706 432.003 596.694 383.253C596.681 329.587 589.689 323.201 581.763 322.129ZM570.817 329.282C549.274 354.732 449.229 359.332 361.143 350.246C331.738 347.213 305.783 342.856 288.032 337.963C263.449 331.187 240.287 321.783 218.567 310.865C238.957 290.87 275.869 291.244 313.478 295.123C328.086 296.63 343.162 298.728 359.142 300.97C375.461 303.246 392.336 305.595 409.023 307.316C449.297 311.471 500.002 313.391 537.933 292.035C544.726 296.128 558.223 311.459 570.817 329.282ZM452.522 241.607C458.28 247.173 463.711 252.451 468.376 257.14C474.752 263.56 488.356 269.204 502.737 275.174C510.176 278.263 517.664 281.415 523.582 284.438C490.134 300.813 447.206 299.259 409.02 295.32C393.437 293.713 377.566 291.516 362.113 289.354C362.08 276.235 359.769 262.659 355.859 254.088C378.4 245.447 410.806 238.226 452.522 241.607ZM409.135 199.094C416.722 206.732 424.392 214.316 432.141 221.844C394.513 221.479 365.011 228.966 343.972 237.54C336.596 228.172 329.162 218.831 321.671 209.519C341.587 202.451 370.075 196.967 409.135 199.094ZM390.307 179.73C354.339 179.717 327.641 185.905 308.541 193.411C302.533 186.057 296.634 178.928 290.885 172.053C319.939 163.498 353.281 162.425 374.512 162.87C379.883 168.718 385.125 174.289 390.307 179.73ZM277.288 155.995C270.102 147.589 262.824 139.233 255.454 130.929C276.395 125.596 304.615 121.451 339.668 122.786C345.517 129.87 351.489 136.889 357.582 143.842C334.244 144.226 304.015 146.888 277.288 155.995ZM359.268 124.067C363.655 129.953 368.181 135.936 372.856 142.001C367.584 136.021 362.402 129.991 357.309 123.914C357.965 123.965 358.602 123.998 359.268 124.067ZM331.435 85.9084C335.573 91.6785 339.93 97.7265 344.546 104.089C343.333 104.014 342.179 104.01 340.976 103.952C336.138 97.852 331.386 91.7107 326.722 85.5292C328.313 85.6604 329.834 85.7597 331.435 85.9084ZM240.704 114.67C233.821 107.184 226.814 99.7724 219.686 92.4375C241.164 86.9548 271.015 82.7226 309.747 84.4041C314.581 90.9459 319.426 97.3323 324.26 103.528C289.009 103.515 261.107 108.714 240.704 114.67ZM296.729 39.4417C300.25 42.8018 308.218 53.5858 317.141 65.9503C315.47 65.8439 313.79 65.7282 312.149 65.6413C305.954 56.9384 299.944 48.158 294.124 39.3047C295.009 39.3713 295.814 39.3638 296.729 39.4417ZM245.969 12.462C257.206 13.6211 264.694 17.448 268.853 24.1589C277.395 37.9677 286.389 51.6155 295.821 65.0851C255.488 64.5558 225.081 70.262 203.713 76.6864C182.785 56.6206 165.102 42.4385 150.81 34.4437C174.773 24.5655 217.061 9.48035 245.969 12.462ZM67.2963 16.7732C68.8275 16.0254 73.5504 14.3225 83.8924 15.3893C91.9075 16.216 104.736 18.98 123.542 26.3701C98.3039 26.1216 84.3462 41.0826 73.0927 53.4573C65.8554 61.3886 59.0556 68.8793 52.6914 68.5028C48.7922 63.984 55.747 39.5324 67.2963 16.7732ZM37.9244 67.7618C38.4421 70.1205 39.3177 72.2198 40.6108 73.9504C43.2767 77.4775 47.4139 79.6744 52.2667 80.1749C66.7256 81.6663 75.6429 71.8664 85.0871 61.4786C96.3804 49.0916 108.042 36.2814 129.64 38.5092C141.713 39.7544 162.599 54.7196 190.259 81.1444C183.349 83.7414 178.03 86.2143 174.013 88.2617C172.9 87.8371 171.736 87.5504 170.562 87.4118C162.975 86.6292 156.831 92.1375 156.832 99.7122C156.834 107.287 162.981 114.063 170.569 114.846C177.211 115.531 182.749 111.384 184.021 105.242C190.921 101.812 198.194 98.8627 205.776 96.4202C213.078 103.864 220.237 111.398 227.25 119.021C220.873 121.299 214.698 123.892 208.757 126.787C207.578 126.316 206.338 126.001 205.087 125.857C197.509 125.075 191.365 130.576 191.367 138.159C191.369 145.742 197.516 152.509 205.094 153.291C211.627 153.965 217.065 149.948 218.456 143.974C225.841 140.434 233.59 137.375 241.643 134.823C249.034 143.069 256.693 151.771 264.58 160.966C256.451 164.571 248.971 169.008 242.289 174.187C241.921 174.116 241.573 174.006 241.195 173.967C233.588 173.182 227.454 178.691 227.456 186.266C227.458 193.833 233.595 200.616 241.202 201.401C248.631 202.167 254.665 196.845 254.862 189.472C261.646 184.234 269.376 179.887 277.84 176.553C283.857 183.711 290.015 191.105 296.311 198.753C289.043 202.337 282.312 206.563 276.217 211.368C275.909 211.32 275.611 211.215 275.303 211.183C267.735 210.403 261.581 215.918 261.583 223.493C261.585 231.06 267.742 237.845 275.309 238.625C282.807 239.399 288.852 234.012 288.999 226.576C295.102 221.92 301.872 217.89 309.192 214.555C316.825 224.001 324.389 233.481 331.882 242.995C325.071 246.322 318.606 250.07 312.533 254.214C311.897 254.058 311.27 253.894 310.624 253.827C303.027 253.044 296.893 258.561 296.894 266.128C296.896 273.703 303.033 280.478 310.631 281.261C317.731 281.994 323.527 277.149 324.202 270.27C330.27 266.197 336.746 262.542 343.58 259.334C346.475 266.417 347.711 277.149 347.654 287.369C336.275 285.76 324.886 284.341 313.495 283.113C270.775 278.706 228.742 278.628 205.34 303.976C143.122 270.002 94.3055 224.138 62.3274 190.904C63.0368 164.269 55.0574 146.757 47.0683 129.968C40.4024 115.927 34.1145 102.632 33.4337 84.0039C34.7748 78.5354 36.2551 73.073 37.9244 67.7618ZM33.595 133.148C39.6938 145.971 45.4445 158.453 47.3081 175.004C44.6722 172.155 42.2055 169.472 39.9376 166.999C29.8816 156.065 24.5701 150.38 20.6912 147.444C20.7367 135.582 22.0583 123.879 24.6403 112.473C27.2475 119.814 30.4511 126.542 33.595 133.148ZM365.916 428.954C286.591 420.772 224.465 397.815 195.431 365.98C157.544 324.421 124.086 299.062 94.567 276.677C68.3697 256.825 43.6344 238.062 19.8517 211.058C14.9976 205.239 13.0106 172.232 15.8714 159.782C19.3129 163.274 24.0973 168.469 28.7722 173.562C67.5143 215.727 158.248 314.449 285.072 349.406C303.758 354.553 330.786 359.111 361.146 362.242C429.284 369.27 544.933 371.607 579.66 340.725C580.904 347.67 582.131 360.023 582.136 381.734C582.145 418.126 479.081 440.626 365.916 428.954Z" fill="black"/>
</svg>
